<?xml version="1.0" standalone="no"?>
<!DOCTYPE svg PUBLIC "-//W3C//DTD SVG 20010904//EN"
 "http://www.w3.org/TR/2001/REC-SVG-20010904/DTD/svg10.dtd">
<svg version="1.0" xmlns="http://www.w3.org/2000/svg"
 width="700.000000pt" height="700.000000pt" viewBox="0 0 700.000000 700.000000"
 preserveAspectRatio="xMidYMid meet">
<metadata>
Created by potrace 1.14, written by Peter Selinger 2001-2017
</metadata>
<g transform="translate(0.000000,700.000000) scale(0.100000,-0.100000)"
fill="#000000" stroke="none">
<path d="M2053 6985 c-176 -48 -320 -200 -353 -374 -6 -35 -10 -593 -10 -1610
l0 -1556 -153 -1 c-83 -1 -178 -4 -209 -7 -106 -11 -173 -19 -180 -23 -4 -3
-26 -7 -50 -10 -77 -10 -151 -33 -170 -52 -23 -22 -27 -75 -7 -98 19 -24 233
-193 309 -245 36 -24 67 -47 68 -51 2 -5 8 -8 13 -8 5 0 33 -16 63 -35 30 -19
83 -48 118 -65 34 -17 53 -28 40 -24 -12 3 -62 7 -110 8 -289 9 -530 -151
-681 -452 -34 -67 -86 -215 -96 -272 -3 -19 -10 -54 -15 -76 -35 -156 -32
-466 5 -654 3 -14 8 -38 11 -55 24 -142 114 -400 191 -549 182 -351 455 -620
736 -724 99 -37 185 -51 292 -47 121 4 139 8 232 47 l74 30 52 -22 c89 -39
148 -51 257 -55 113 -4 184 8 296 50 126 48 271 142 386 253 l57 55 1373 0
c1135 0 1382 2 1432 14 176 41 324 191 360 365 10 51 12 637 11 2963 -2 2648
-3 2904 -18 2950 -54 165 -190 293 -355 331 -87 21 -3893 19 -3969 -1z"/>
</g>
</svg>
